<svg xmlns="http://www.w3.org/2000/svg" xmlns:xlink="http://www.w3.org/1999/xlink" width="387" zoomAndPan="magnify" viewBox="0 0 290.25 290.249983" height="387" preserveAspectRatio="xMidYMid meet" version="1.0"><path stroke-linecap="round" transform="matrix(7.646328, 0, 0, 7.501236, -20.734559, -74.665799)" fill-opacity="1" fill="#6d351e" fill-rule="nonzero" stroke-linejoin="round" d="M 39.936984 29.287591 C 39.936984 39.627033 31.715104 48.008464 21.572879 48.008464 C 11.431165 48.008464 3.209285 39.627033 3.209285 29.287591 C 3.209285 18.948671 11.431165 10.56724 21.572879 10.56724 C 31.715104 10.56724 39.936984 18.948671 39.936984 29.287591 Z M 39.936984 29.287591 " stroke="#6d351e" stroke-width="0.4" stroke-opacity="1" stroke-miterlimit="4"/><path stroke-linecap="round" transform="matrix(6.873143, 0, 0, 6.873649, -1839.003915, -55.681248)" fill-opacity="1" fill="#ffffff" fill-rule="nonzero" stroke-linejoin="round" d="M 290.718888 17.293967 L 292.843894 16.575076 L 294.406248 16.168746 L 295.40595 16.200002 L 296.156152 16.450051 L 296.781321 17.043918 L 296.843838 17.762241 L 296.718804 18.262339 L 296.187411 18.699925 L 295.280916 19.168767 L 294.625057 19.575097 L 294.249955 20.075195 L 293.999888 21.137336 L 293.812337 22.012508 L 293.999888 23.356522 L 294.687574 24.262382 L 295.624759 25.57514 L 296.656287 27.793758 L 297.093906 29.230972 L 297.499697 31.76272 L 297.624731 33.543751 L 297.531524 35.262271 L 297.187681 37.13764 L 296.625029 38.481085 L 295.968602 39.606307 L 295.218967 40.824728 L 294.500023 41.543619 L 293.624787 42.043717 L 292.031174 42.231254 L 287.718645 42.168742 L 286.343842 42.043717 L 285.687415 41.887437 L 285.156021 41.543619 L 284.468904 40.793472 L 282.999757 38.60611 L 282.437673 37.043871 L 282.062572 35.637345 L 282.000055 34.231387 L 282.031313 33.63752 L 281.562437 32.949885 L 280.875319 31.700207 L 280.25015 30.418705 L 279.687498 28.481393 L 279.468689 27.387428 L 279.624981 25.825189 L 279.906307 24.293638 L 280.500218 23.043961 L 281.656212 21.762459 L 282.844033 21.10608 L 284.125061 20.668494 L 283.593667 19.606353 L 283.437375 18.82495 L 283.562409 18.293595 L 284.250095 17.793497 L 285.624898 17.387735 L 287.094045 17.168942 L 289.312826 17.168942 L 289.968685 17.262711 L 289.843651 17.325223 L 289.281568 17.481504 L 288.531365 17.481504 L 287.62487 17.544016 L 286.343842 17.668472 L 285.37483 17.981034 L 284.812747 18.293595 L 284.969039 18.606157 L 285.593639 18.762437 L 286.531393 18.887462 L 286.937753 18.856206 L 287.812421 18.543644 L 289.281568 17.918521 L 290.343786 17.450248 Z M 290.718888 17.293967 " stroke="#ffffff" stroke-width="0.05" stroke-opacity="1" stroke-miterlimit="4"/><path stroke-linecap="butt" transform="matrix(6.873143, 0, 0, 6.873649, -1839.003915, -55.681248)" fill-opacity="1" fill="#6d351e" fill-rule="nonzero" stroke-linejoin="round" d="M 282.109175 31.152941 L 282.343898 29.68447 L 282.828119 28.027895 L 283.42203 26.512256 L 283.952855 25.527971 L 284.406387 24.840905 L 284.546766 24.590855 L 284.75023 24.012333 L 284.796833 23.059304 L 284.687713 22.402925 L 284.546766 22.231301 L 284.327957 22.12162 L 284.156319 22.184132 L 283.249824 22.684231 L 282.60931 23.153073 L 281.718729 24.074845 L 281.249852 24.871592 L 280.921923 25.871789 L 280.828147 26.918586 L 280.937836 27.950038 L 281.124818 28.903067 L 281.422058 29.778239 L 281.734642 30.434618 Z M 282.109175 31.152941 " stroke="#6d351e" stroke-width="0.05" stroke-opacity="1" stroke-miterlimit="4"/><path stroke-linecap="round" transform="matrix(6.873143, 0, 0, 6.873649, -1839.003915, -55.681248)" fill-opacity="1" fill="#6d351e" fill-rule="nonzero" stroke-linejoin="round" d="M 286.125033 20.793518 L 286.546738 20.65315 L 287.015614 20.637238 L 287.296941 20.69975 L 287.453233 21.028223 L 287.51575 21.528322 L 287.51575 22.512606 L 287.484491 23.403122 L 287.343544 24.278294 L 287.062218 24.965361 L 286.890581 25.309178 L 286.640513 25.809277 L 286.343842 26.293463 L 285.874965 27.059522 L 285.562381 27.793758 L 285.030987 28.981491 L 284.656454 30.074888 L 284.406387 30.684098 L 284.202923 31.184197 L 284.000027 31.293877 L 283.827821 31.262621 L 283.718701 31.184197 L 283.656184 30.871635 L 283.93751 29.371909 L 284.312611 28.2626 L 284.843437 26.824817 L 285.390744 25.809277 L 285.843707 24.934105 L 286.156291 24.231126 L 286.250067 23.653171 L 286.093775 22.371669 L 286.015344 21.465809 L 285.999999 21.10608 Z M 286.125033 20.793518 " stroke="#6d351e" stroke-width="0.05" stroke-opacity="1" stroke-miterlimit="4"/></svg>