<svg xmlns="http://www.w3.org/2000/svg" xmlns:xlink="http://www.w3.org/1999/xlink" width="387" zoomAndPan="magnify" viewBox="0 0 290.25 290.249983" height="387" preserveAspectRatio="xMidYMid meet" version="1.0"><defs><g/></defs><path stroke-linecap="round" transform="matrix(6.953582, 0, 0, 6.825197, -4.273565, -53.714448)" fill-opacity="1" fill="#82104e" fill-rule="nonzero" stroke-linejoin="round" d="M 39.936721 29.287672 C 39.936721 39.626774 31.715351 48.007942 21.572759 48.007942 C 11.430728 48.007942 3.209358 39.626774 3.209358 29.287672 C 3.209358 18.948571 11.430728 10.567402 21.572759 10.567402 C 31.715351 10.567402 39.936721 18.948571 39.936721 29.287672 Z M 39.936721 29.287672 " stroke="#82104e" stroke-width="3" stroke-opacity="1" stroke-miterlimit="4"/><g fill="#ffffff" fill-opacity="1"><g transform="translate(87.28289, 105.864982)"><g><path d="M 6.140625 -48.75 L 40.046875 -48.75 L 40.046875 -39.25 L 18.703125 -39.25 L 18.703125 -30.171875 L 38.78125 -30.171875 L 38.78125 -20.671875 L 18.703125 -20.671875 L 18.703125 -9.5 L 40.765625 -9.5 L 40.765625 0 L 6.140625 0 Z M 6.140625 -48.75 "/></g></g></g><g fill="#ffffff" fill-opacity="1"><g transform="translate(126.913911, 106.203915)"><g><path d="M 3.625 -24 L 24.125 -24 L 24.125 -14.5 L 3.625 -14.5 Z M 3.625 -24 "/></g></g></g><g fill="#ffffff" fill-opacity="1"><g transform="translate(148.078498, 105.864982)"><g><path d="M 33.296875 -24.875 L 50.203125 0 L 37.109375 0 L 25.71875 -16.65625 L 14.421875 0 L 1.265625 0 L 18.171875 -24.875 L 1.921875 -48.75 L 15.046875 -48.75 L 25.71875 -33.046875 L 36.359375 -48.75 L 49.546875 -48.75 Z M 33.296875 -24.875 "/></g></g></g><path stroke-linecap="round" transform="matrix(6.684012, 0, 0, 6.687994, -3286.740081, -54.343085)" fill-opacity="1" fill="#ffffff" fill-rule="nonzero" stroke-linejoin="round" d="M 519.659757 43.212829 L 519.641055 41.952992 L 525.67107 38.369729 L 525.595095 30.932778 L 519.603068 27.540506 L 519.586705 26.163271 L 518.668585 26.160351 L 518.668585 27.510134 L 513.491235 30.528019 L 508.21921 27.47509 L 508.240833 26.184881 L 507.363623 26.168528 L 507.363623 27.458736 L 501.379778 30.889557 L 501.327765 38.464932 L 507.358364 41.955328 L 507.354857 43.185962 L 508.264794 43.21867 L 508.257197 41.944815 L 513.412339 38.907656 L 518.665663 41.90101 L 518.627676 43.23736 Z M 519.659757 43.212829 " stroke="#ffffff" stroke-width="0.05" stroke-opacity="1" stroke-miterlimit="4"/><path stroke-linecap="butt" transform="matrix(6.684012, 0, 0, 6.687994, -3286.740081, -54.343085)" fill-opacity="1" fill="#82104e" fill-rule="nonzero" stroke-linejoin="miter" d="M 507.848689 29.120412 L 512.652013 31.899412 L 512.66487 37.454493 L 507.791417 40.365493 L 502.913288 37.551448 L 502.934912 31.839837 Z M 507.848689 29.120412 " stroke="#82104e" stroke-width="0.05" stroke-opacity="1" stroke-miterlimit="4"/><path stroke-linecap="butt" transform="matrix(6.684012, 0, 0, 6.687994, -3286.740081, -54.343085)" fill-opacity="1" fill="#ffffff" fill-rule="nonzero" stroke-linejoin="miter" d="M 503.851277 32.182686 L 504.327577 32.985197 L 508.038625 30.828814 L 507.591546 30.036816 Z M 503.851277 32.182686 " stroke="#ffffff" stroke-width="0.05" stroke-opacity="1" stroke-miterlimit="4"/><path stroke-linecap="butt" transform="matrix(6.684012, 0, 0, 6.687994, -3286.740081, -54.343085)" fill-opacity="1" fill="#82104e" fill-rule="nonzero" stroke-linejoin="miter" d="M 519.274626 28.820785 L 524.077949 31.599785 L 524.090806 37.154865 L 519.217353 40.065865 L 514.339224 37.251821 L 514.361432 31.54021 Z M 519.274626 28.820785 " stroke="#82104e" stroke-width="0.05" stroke-opacity="1" stroke-miterlimit="4"/><path stroke-linecap="butt" transform="matrix(6.684012, 0, 0, 6.687994, -3286.740081, -54.343085)" fill-opacity="1" fill="#ffffff" fill-rule="nonzero" stroke-linejoin="miter" d="M 515.197149 32.173341 L 515.673448 32.975852 L 519.384496 30.819469 L 518.937417 30.027471 Z M 515.197149 32.173341 " stroke="#ffffff" stroke-width="0.05" stroke-opacity="1" stroke-miterlimit="4"/><path stroke-linecap="butt" transform="matrix(6.684012, 0, 0, 6.687994, -3286.740081, -54.343085)" fill-opacity="1" fill="#ffffff" fill-rule="nonzero" stroke-linejoin="miter" d="M 522.397166 32.565835 L 523.283726 32.583357 L 523.266194 37.069591 L 519.347678 39.392434 L 518.904105 38.577073 L 522.379633 36.608761 Z M 522.397166 32.565835 " stroke="#ffffff" stroke-width="0.05" stroke-opacity="1" stroke-miterlimit="4"/><path stroke-linecap="butt" transform="matrix(6.684012, 0, 0, 6.687994, -3286.740081, -54.343085)" fill-opacity="1" fill="#ffffff" fill-rule="nonzero" stroke-linejoin="miter" d="M 511.004541 32.557074 L 511.979933 32.574596 L 511.962401 37.06083 L 508.0433 39.383673 L 507.529013 38.620878 L 511.004541 36.635044 Z M 511.004541 32.557074 " stroke="#ffffff" stroke-width="0.05" stroke-opacity="1" stroke-miterlimit="4"/><path stroke-linecap="round" transform="matrix(6.783793, 0, 0, 6.956892, -3321.538742, -42.662342)" fill-opacity="1" fill="#ffffff" fill-rule="nonzero" stroke-linejoin="round" d="M 501.38853 28.692636 C 501.38853 29.424263 500.781039 30.016638 500.03132 30.016638 C 499.281601 30.016638 498.67411 29.424263 498.67411 28.692636 C 498.67411 27.961572 499.281601 27.368635 500.03132 27.368635 C 500.781039 27.368635 501.38853 27.961572 501.38853 28.692636 Z M 501.38853 28.692636 " stroke="#82104e" stroke-width="0.779" stroke-opacity="1" stroke-miterlimit="4"/><path stroke-linecap="round" transform="matrix(6.783793, 0, 0, 6.956892, -3321.963285, -0.974279)" fill-opacity="1" fill="#ffffff" fill-rule="nonzero" stroke-linejoin="round" d="M 501.388347 28.692556 C 501.388347 29.424182 500.780856 30.017119 500.031137 30.017119 C 499.281994 30.017119 498.673927 29.424182 498.673927 28.692556 C 498.673927 27.961491 499.281994 27.368554 500.031137 27.368554 C 500.780856 27.368554 501.388347 27.961491 501.388347 28.692556 Z M 501.388347 28.692556 " stroke="#82104e" stroke-width="0.779" stroke-opacity="1" stroke-miterlimit="4"/><path stroke-linecap="round" transform="matrix(6.783793, 0, 0, 6.956892, -3246.6458, 1.059089)" fill-opacity="1" fill="#ffffff" fill-rule="nonzero" stroke-linejoin="round" d="M 501.388764 28.692813 C 501.388764 29.423877 500.780697 30.016814 500.031554 30.016814 C 499.281835 30.016814 498.674344 29.423877 498.674344 28.692813 C 498.674344 27.961186 499.281835 27.368811 500.031554 27.368811 C 500.780697 27.368811 501.388764 27.961186 501.388764 28.692813 Z M 501.388764 28.692813 " stroke="#82104e" stroke-width="0.779" stroke-opacity="1" stroke-miterlimit="4"/><path stroke-linecap="round" transform="matrix(6.783793, 0, 0, 6.956892, -3170.783147, 0.178452)" fill-opacity="1" fill="#ffffff" fill-rule="nonzero" stroke-linejoin="round" d="M 501.388856 28.6925 C 501.388856 29.424126 500.78079 30.017063 500.031646 30.017063 C 499.281928 30.017063 498.673861 29.424126 498.673861 28.6925 C 498.673861 27.961435 499.281928 27.368498 500.031646 27.368498 C 500.78079 27.368498 501.388856 27.961435 501.388856 28.6925 Z M 501.388856 28.6925 " stroke="#82104e" stroke-width="0.779" stroke-opacity="1" stroke-miterlimit="4"/></svg>